<mxfile host="65bd71144e">
    <diagram id="HIP3nbAZw_EuaXWnEj3U" name="Page-1">
        <mxGraphModel dx="91" dy="40" grid="1" gridSize="10" guides="1" tooltips="1" connect="1" arrows="1" fold="1" page="1" pageScale="1" pageWidth="850" pageHeight="1100" math="0" shadow="0">
            <root>
                <mxCell id="0"/>
                <mxCell id="1" parent="0"/>
                <mxCell id="7" value="http://ics2o.mths.ca" style="swimlane;whiteSpace=wrap;html=1;" parent="1" vertex="1">
                    <mxGeometry x="45" y="60" width="760" height="480" as="geometry"/>
                </mxCell>
                <mxCell id="9" value="&lt;font style=&quot;font-size: 14px;&quot;&gt;Select your smoothie size:&lt;/font&gt;" style="text;html=1;align=center;verticalAlign=middle;resizable=0;points=[];autosize=1;strokeColor=none;fillColor=none;" vertex="1" parent="7">
                    <mxGeometry x="30" y="100" width="190" height="30" as="geometry"/>
                </mxCell>
                <mxCell id="11" value="Large ($6.50)" style="text;html=1;align=center;verticalAlign=middle;resizable=0;points=[];autosize=1;strokeColor=none;fillColor=none;" vertex="1" parent="7">
                    <mxGeometry x="45" y="150" width="100" height="30" as="geometry"/>
                </mxCell>
                <mxCell id="10" value="Small ($4.00)" style="text;html=1;align=center;verticalAlign=middle;resizable=0;points=[];autosize=1;strokeColor=none;fillColor=none;" vertex="1" parent="7">
                    <mxGeometry x="50" y="130" width="90" height="30" as="geometry"/>
                </mxCell>
                <mxCell id="12" value="&lt;font style=&quot;font-size: 14px;&quot;&gt;Pick exactly 3 fruits:&lt;/font&gt;" style="text;html=1;align=center;verticalAlign=middle;resizable=0;points=[];autosize=1;strokeColor=none;fillColor=none;" vertex="1" parent="7">
                    <mxGeometry x="30" y="190" width="150" height="30" as="geometry"/>
                </mxCell>
                <mxCell id="13" value="&lt;span style=&quot;color: rgb(0, 0, 0);&quot;&gt;Banana&lt;/span&gt;" style="text;html=1;align=center;verticalAlign=middle;resizable=0;points=[];autosize=1;strokeColor=none;fillColor=none;" vertex="1" parent="7">
                    <mxGeometry x="50" y="210" width="60" height="30" as="geometry"/>
                </mxCell>
                <mxCell id="38" value="&lt;span style=&quot;color: rgb(0, 0, 0);&quot;&gt;Strawberry&lt;/span&gt;" style="text;html=1;align=center;verticalAlign=middle;resizable=0;points=[];autosize=1;strokeColor=none;fillColor=none;" vertex="1" parent="7">
                    <mxGeometry x="45" y="225" width="80" height="30" as="geometry"/>
                </mxCell>
                <mxCell id="39" value="Mango" style="text;html=1;align=center;verticalAlign=middle;resizable=0;points=[];autosize=1;strokeColor=none;fillColor=none;" vertex="1" parent="7">
                    <mxGeometry x="45" y="240" width="60" height="30" as="geometry"/>
                </mxCell>
                <mxCell id="41" value="Kiwi" style="text;html=1;align=center;verticalAlign=middle;resizable=0;points=[];autosize=1;strokeColor=none;fillColor=none;" vertex="1" parent="7">
                    <mxGeometry x="45" y="280" width="50" height="30" as="geometry"/>
                </mxCell>
                <mxCell id="40" value="Blieberries" style="text;html=1;align=center;verticalAlign=middle;resizable=0;points=[];autosize=1;strokeColor=none;fillColor=none;" vertex="1" parent="7">
                    <mxGeometry x="45" y="260" width="80" height="30" as="geometry"/>
                </mxCell>
                <mxCell id="44" value="CALCULATE" style="rounded=1;whiteSpace=wrap;html=1;" vertex="1" parent="7">
                    <mxGeometry x="50" y="320" width="80" height="30" as="geometry"/>
                </mxCell>
                <mxCell id="45" value="Your smoothie:....." style="text;html=1;align=center;verticalAlign=middle;resizable=0;points=[];autosize=1;strokeColor=none;fillColor=none;" vertex="1" parent="7">
                    <mxGeometry x="25" y="358" width="120" height="30" as="geometry"/>
                </mxCell>
                <mxCell id="46" value="Subtotal:" style="text;html=1;align=center;verticalAlign=middle;resizable=0;points=[];autosize=1;strokeColor=none;fillColor=none;" vertex="1" parent="7">
                    <mxGeometry x="30" y="380" width="70" height="30" as="geometry"/>
                </mxCell>
                <mxCell id="48" value="HST(13%):" style="text;html=1;align=center;verticalAlign=middle;resizable=0;points=[];autosize=1;strokeColor=none;fillColor=none;" vertex="1" parent="7">
                    <mxGeometry x="30" y="400" width="80" height="30" as="geometry"/>
                </mxCell>
                <mxCell id="49" value="Total:" style="text;html=1;align=center;verticalAlign=middle;resizable=0;points=[];autosize=1;strokeColor=none;fillColor=none;" vertex="1" parent="7">
                    <mxGeometry x="40" y="428" width="50" height="30" as="geometry"/>
                </mxCell>
                <mxCell id="50" value="" style="ellipse;whiteSpace=wrap;html=1;aspect=fixed;" vertex="1" parent="7">
                    <mxGeometry x="35" y="140" width="10" height="10" as="geometry"/>
                </mxCell>
                <mxCell id="51" value="" style="ellipse;whiteSpace=wrap;html=1;aspect=fixed;" vertex="1" parent="7">
                    <mxGeometry x="35" y="160" width="10" height="10" as="geometry"/>
                </mxCell>
                <mxCell id="52" value="" style="whiteSpace=wrap;html=1;aspect=fixed;" vertex="1" parent="7">
                    <mxGeometry x="35" y="220" width="10" height="10" as="geometry"/>
                </mxCell>
                <mxCell id="56" value="" style="whiteSpace=wrap;html=1;aspect=fixed;" vertex="1" parent="7">
                    <mxGeometry x="35" y="290" width="10" height="10" as="geometry"/>
                </mxCell>
                <mxCell id="55" value="" style="whiteSpace=wrap;html=1;aspect=fixed;direction=south;" vertex="1" parent="7">
                    <mxGeometry x="35" y="270" width="10" height="10" as="geometry"/>
                </mxCell>
                <mxCell id="54" value="" style="whiteSpace=wrap;html=1;aspect=fixed;" vertex="1" parent="7">
                    <mxGeometry x="35" y="250" width="10" height="10" as="geometry"/>
                </mxCell>
                <mxCell id="53" value="" style="whiteSpace=wrap;html=1;aspect=fixed;" vertex="1" parent="7">
                    <mxGeometry x="35" y="235" width="10" height="10" as="geometry"/>
                </mxCell>
                <mxCell id="58" value="" style="shape=image;verticalLabelPosition=bottom;labelBackgroundColor=default;verticalAlign=top;aspect=fixed;imageAspect=0;image=data:image/jpeg,/9j/4AAQSkZJRgABAQAAAQABAAD/2wCEAAkGBxMTEhUSEhIVFRUXFxcVFhUWGBUXFxcVFRcWFxUVFRgYHSggGBolGxUVITEhJSkrLi4uFx8zODMtNygtLisBCgoKDg0OGhAQGi0lHx8tLS0tLS0tLS0tLS0tLS0tLS0tLS0tLS0tLS0tLS0tLS0tLS0tLS0tLS0tLS0tLS0tLf/AABEIALcBEwMBEQACEQEDEQH/xAAbAAACAwEBAQAAAAAAAAAAAAADBAIFBgEAB//EAEAQAAEDAgMFBgQCCAUFAQAAAAEAAhEDBAUhMRJBUWFxBhMigaGxMpHB8FLRFCNCYnKy4fEHFUOCkiRTY6LCNP/EABoBAAIDAQEAAAAAAAAAAAAAAAECAAMEBQb/xAA0EQACAgEEAAUDAgUCBwAAAAAAAQIRAwQSITEFEyJBUTJhcYGhFCOxwfAz0QYVJFKR4fH/2gAMAwEAAhEDEQA/APqzQ1XWU0DaGzqpZKA3LGlElHrINaoyIae9qFho497YUsm0TohodKlgosHVGwpY1CjarQULBR2pWbGcKWHaCN21Sw7QQuwhYNpOnfAFTcGhk4m3ipaDQnUxJvFByJRwYmOKm4NEjiYCO4VorquJN2lNxFEtbXE2RuSOQ9Cl3ijdyawHaeLtjclsIKriwJ8MI2AHWxcAQhYRT/NUCHK2MGFCAaOJlKMgwvCSq2yxFjb1Z+ylGGBKNAslsngptYNyObJU2sNnRScdyOxg3I45hGuSDg0RSR5rJyUUCORMWz+AR8tg8xFZ+ku4rTTKAZuHcUKZBmg4nenSEbJ1HEIsCYF9Q8UKGsJQJO9FIDZ2qCFKBYJ9Q8UKDZ6gSVEg2duWkKNBTESSkoIag2UyRDtdsINEF5QCK1qiBAlCVCBqrMk1cAEH0ylCFoUyoiB6lCUzACFA6JbCGp2ZUslHqlkSpYUgbbQ6JbDR2pYlSw7T1PDjuSOQyiRfSLSkbHSH7WoYyzQRBi3xEl0bKtjRVIv7Js7grkkVNsrcbrupvAAyKWSQ0WywwqpIBI9EyF5Fe0BOWyq8hZAqsOqVC4AqRYJJmqZTyCttCUzIFQgMMkqAZYW+SYU5cFQNAIlAlBqLtlGyNBrjSSlbCkJHNGyUMUmRogpBonXbuIUuyVRX1KcHMJWEnPBRMIV9ExPopdkoBUtjEwpQCtIkpRh2lCDCWlG0YQopMLigNxaMATCCVrUbOaVjIsi+nyRQZIr8RrsbnIA4kwlyTjDmToCK/EcZ7unLYLnZN/NY9VqljhcXy+gylSK7s5eOaXgkkO8WZk7U5n1ErH4dmk5yi39yvE+aNLZWz6hy1Go4A6Tz5LoT1CUtq5Za5URvy6m4scMx6p9zaHjyrFn3ZY7YcIJzE7+hWWGsxzm4e4dyTpil1cElaAmiwINDJdEogOO2WuL8g0Zp4sVqx7BO09tVcGsqCXAwM841V0Ytopk0mTxxoe5sbkGFB8LrNbk4gcFEyNEcaLXRDhKE1xyGLELdjWjacYA3rPHURc9qDIuWYjTgeNvzC10V2ZKq0t1yT0LZ63eJUCMF4LgN0iUCUWFWx2yA3LWegSxdharor72j3LoJTgAOqTolCWlN7akN0kieSiiRvgFjNuyk0OGXFMBFfa4iJlLQR+jfsc4Tu+qMVRHyLdpcRptZIIlBsC7KSyxIPEpRx5uLgZFRECXePMDMzy+4TNoCRmf8yHeBm0JcNoCcyN8TqhKEo9kjJPov8MtzWds7UACXHfHLnmsWr1S0+Pey6MNxdjDGh/hqO2IHhGsxn4j+S8/l/wCJYRXpjb/Yu/h37mTx27r2zyK8miT4KjRnBnI5xIy+nLq6DxNajHufD+P87Ozh8N0mqglitTS5VgHX9OmWte6C4bTR4XSDP4SdwldGeRQVy6Mr8IltvG75r4/qRGJNI2mvkHIAZGeh0Ux5Y5PpZj1ejy6bjKv7ilw0VKgcczlA1jSff1XL8Y0+TF/N3Wnx+ODlqe5grgy8MEeHwjzOfv6LipvYrG+wbDXhry7aAAyHM5ZddFZCcoSTXYYdl5gd/cVamzT8LGSXFkEnzPNbNKpZMnPty6Jkk0qia2+q0X0u9qEHYGZOp/qtWXUJ4m1Kmi7H6ezmGMtrpoc3xgZQ5pBB81XptPgy+q7a7vsWc1MljFtRAaxxawzDSYGW9aMk1gqK7Yd3HZ80fjf6FeVqNRxLJlkmQWkSCOK72DHDJj5Mk8s4tM5j/a6lcWtRtIua5sHZcC3aE5tE6yqHhin2aFkbXRVdlsQqA7bWhpGbdox1hbYSx7XFdmXJDI5KT6PpWL9oGCmwtI2nAZHcd8rn5Y5KagrZrjJVbYVlItt313HvHbPg4SchHmuLCOqWST1Ht0l0XemVOLsq8OsnW9LvKry46lziTHIToE05zk7H2jfbe7DcPqPGY2Zy1hXxVJV2yiLqVnzmy7bUdhoFIRG+J85TR02WuXyWOSfsfRO2uKsABaRPJdR8GVcsyWFY7tOgqJ2NRof0zQpgDtpjgYdc0Ama7Udp9t3h3JWyJDOGXpeyeSZEYxRvajc0ReCs7S43Uc2CYQYUuQfZyqXNzKCCPPYQ7VGgHLqg2oxzXbznnoTkDO46eS85PNPDnlJfPKKbalwLYLb93LHZlpieI3H5Ls48iyRUl7mqLTVojf3FJroc8A+06ExoOqtXJGjPdqG1C6mKLg4iS5gdmA6Nh3DODqZTRTclRHwuT2EdomsrMo17c940y0P0G1lJmQcpzEzmtr2OLhLhmFqe5Sjyj6LZYtanxj9U92WyZIAyO7IA84XjvFNB4hlj5UalBc8d/udjBmxr1PgeNUtK8lkwbXTOskprgZpvbWBpVWd40iC0iQrNM8mPIpJOVfsUzg8T3wdMqcH7EstbjvqbdtsksJgmmDMjnwnh697Nl1GaMVFLanzX9x83iD1GNrI/V+zNU+rCpyanJfZgUEz5P21xCo/EHFlVrWsYKcgNkHVxcXOGQJAXodBBajTRjlVq7/sZMsFGbkQsbSo17tuHPA1H7RfLQR57uS5vielenyLGupcr/YyKalbRZYzgj6VtTBpnvNou4zOWfTJSelyQSco93f8AsXxSUTa9jabadIU4gxnxJ5rX4fLZal7kcTK4pQqPvXWwcRRc4VDyB1b8wfmseXDGWevlkbdUbFlIWzGmmIaIB6HeV0Fi8qKcBFwEuXNqRtZjdPNZZ3OXJY6oyfbHsi26qUS0NDqeYyJDhwyyH9F2tJKTw7H7PgpSUZWYLH7am9jqbiWvpkiWjQt6bl0VGLjTA5S3WjM4TQeX7DarztZA7MAdSqcb2SLZxco0a6w7MVqjnOqV3EjTy3BX23K2V+XUNqR9OwHDi6gyhVLg1pmZHWFVqIxm7YcG7GmguPsp+KhtDTQn3XPyYFfHB1MGGeSG6jI41SvKlHuG06bmnwyH/s9I4IrTcp2I9LkT6Eaf+HtqANramM40laKQ/wDCl52x7FVWg1KBNRmpZ+2On4h6pm7OclR88wtxbVg5ZmZQj2Rn06xwR1SkC4hhiWgiT1PBJLPGLoujgk1bKjFbJ9KoWnSJBGhB4KyMlJWiqUXF0zCYnX/WRuM/0QfYDWdnK/g+9NydCsuGgmMuG75phDO9rDs/Phu4aJZ9DQGuylo4sED746JYtDtM0Zw15PL7zTWJTKLGKj6NQZZOH94O4jL5rg+I4qy7q4f7iOPJRYtiLXFrXVXsBPiayJeNgw2SDsiY9Ql0U5Y93ujf4dpXny7LoQptaXOJbO0ZJeNp2cnoN+gWlamV2uD2OPwXSwh61uf3/wA/+gLC7ZRrFkF7z4WznLcgA0geI5RHRdDTT3O7PMeJ6RafJsinTVq/6Fjjts2o+hWFNvfU390aXhl0bUS072ln/scpXQzwuKkcTDKpyhVUNYfiFJ/eUztU6rNmAQBBJbIk7o2uSkZwgkCcck26N1hdXvaYBLdtuRjMETDfQLyvjvhjy5/OXCf6ps6/huo2Y9j5aL3DRst2ZGsnn1XE/hMkE1GSpmjO98rDbZad65/l5dNPcnTE27kVuKXbgdzaf48tTqM9F3dH5Go9U2vukacGKLVPmXwYTFuyzq9z31PuQDp4vid+Jw2T6L0EMsINbVwg5NNppR9blF/ZL+5f9nOy9yyq59w6m4FzdlrdqA1sne3j7KZYvVZYZHVQOBPBHG2ou0ba8sGVGeJoBAmc5HGOC0PFa9Qd3wUGHXJYQHALA4uEg2mAxCqBcA5Z6Ngn1CbbcrA2h29uG92ZEDoSrn9IraFsPuKb4DTpv0Qx44zfAkpJGhtA0EmJgCCfotsY0qEUlZ8sxch9asHgtO04ZZGN0qyj0mDTwnhi18C+G4IAwHM5zJcN3JFJWGWjh1bNBZ0SANBOuYVqK5aTGvk1uG1GAw97GxzzSTXHBiyYKVxizN9sbeLhxLg3aaCzKA7+oKySuzq+HSvFS9nyUvfOBHiy5dOieKOhXAb9IqcVZtQm1G2wLtdTquFKp4KmgB0d/CfoqnweTXPRDtF2Yovq07oNaCwk1NweACQTxIMJckntZZhjc0jF452zfMUAAwa1DvME7I4aLky3St9I9rpPCIJXm7ft/cusMu6V5SO1VEsABcWlsh4nTqHDyXR0zahXZ57xfRPDJSqk7+/+fJQXvY+3fU2jeAAbhTJ9dpWyfJyVEvMPt7SiA3vnO6M/qpbDtLSneWv4n/8AAo7hXApcfwy3uNK5Z1pk/VSUrIoUOYNbNpgNbWpv6yw/IpFKux2h28xPuiBUbEiRoQRxBC0wqStMzzbXZU35bcsG3AbJLCQQQRkS0gZjd5LNqccZ+mRq02B5omL7SYJTY9lRrnkQQYaHNbG9xkbJiYyWF4I4o0mzv+F6R4Mm7+pUUXicnDLiPviqElfZ6SUnJcr/ABfcv+x1vTbWdcv2XvEhhyGyTqRPuujpYerdfBy9bjcoKlT+ft/79xDGqLxeOuHEAPJ2IEgGM9MpMSumpS9/0PL63RxhLcrp/b3/APJyyt9qs94rETEtLJJIn97mioXKzBaUdvJuOymEBoeXPcdoCRDQAAQciAY0G9LngnDa+hcb2z3R7LRtzsmActBPDcvHarG4zar3O5DmKssad5tDMhZp4o5Y1PgXbtfAamwa7U8sk2l8Px4nvjJ8iyyPqiVO3pg7QAB5QOS6yXFFMsk3w2NMd1V2J7eiiSsK952THDLruz0C2Rk6KJIxDrqoCQS10b8iPI70Er7MspV0Fp3zpmAroQKpZGO0rvaGZHnK0LGVPKxu1YxumwOgTLGl0geZ9y1t6zMwC4mNQEriy2GSH3PlXaG3NK5eytJJO0CTmQ7Qk/eiNX0ex0GRZMMWlVcM7h9sxzQw1Q0zO9FJ2bXNx52lzbWlBgzqOcZ3fDzCsVsplkzS6iqNFZXNvTI2KQdlq46FLKLa7Odlx55r1SM3/iPiDnmgTA+KAP8AaqZwUTb4XiUN6/BmqNU8VEjptIfbUMap6K6R2pbkukcZlVNWeKs32H1ar6AFUklzSDOUtMgHzCy5vdJmvTupKXufO8fsLek/YcKzfFtSO7cCSOcGICwrcuK6Z7fTZs+WO9bXxXuhzsQ+3FV7GPLw8ZtczYzmW+IOzgg5c1J5pxxy2rl+/wAGLxaGXLjTmuvh2bllrSbl3LPMA+683k8Q1EJbZ5efwcDyo+xJ9Bk5NpAcO7aT810cf/EGGEVGXL+Sl6ds6LHKQWnkKdKfVq3YPFseb6aEeOuyA2RrRLutOmPYLcs1/ArgStbWm92VvsnjsyPMaK2KTFboXxPDSXF1WDENaOUZkDcFpw9tFGdxaVFPizgxoaBlz+g/JV5fq5On4dFOHZlrq8Ik7EcCC4JYndxpfJVm4YSSaTJOuQz65JvKg+0jWrS+oNbVWNmKTeYl/wBCtEMUV0LJyarcWdG4aRBpsjh4iPUq9QXyZZwvt/0LW0uCMmtaBwDQJTpRRlyYoVTLmxuXaHZB8h7/AEVc1E5+TFjXKv8Az8Ef0A6mJkklu1GZ5579V5rPjj5j2sKlwM2tsQq1jZHJD9NnX5K6MSmTGqdPmfkFfGKKWxim0Dj7K2KRW7GqVMHLZ1yk5q+P4KpIwWMt7is6mdB4h/Cc/vomUeTDkdOjlvWYWjTOCHb44K5IplLimPUW0/DPhOYBgyd/RXRTK5OLLGk6m2CQTxG5NTE3RT5Hqd8BnTaADv1SvHfEmWrPtdwR81/xJrk3bCde7+qKVdHq/A25YZN/JXYG1rqniMQNYkA7p5JztZG1DhF4aB2tiQSTMjTNFd2IprbuLi2oxlpGShknNdlD2/f46DYGTD7jVZ8vZf4cuJv5ZSUSojoMfaMk9FTLkEJNp4XcbLCnP7pgqDIiWcdn9lcvV5YwlybcEW42UHaynRLT3lJ5EEeEgGD1CwS1Cq4nf8PeZP0SX6mVwGrY067HMFYPBIbtlpEnLgs2bJKeJxfR0dStTLG1JqvsfS6dyxwzcFh83TTjWSS4PPSxzi+ESaWKpR0d0v2Fe8K0gfCDPJX4sWCPqhF2I7fZMXGeY3Touzp8tr3K5Y+OB6g8ndHVdLHJMzTVGc7WVxSb3jnQ4u2QN5GpPlkn003vlEqzpbEzN4s8OaJO7XdnmmyPdI7vh2DZjV9syla3zyPv9EEjsxXNAP0Y7nGOpVsUWcDFKkAcy7yV8YiSTfRZ276Y/af8lZRkyRyJXSLijWojUPdyn6Smp+xmlhyP4RdYTiLdrYp0AJgTvjiYA9VXOHFtmLPpmlunPoFXr7Di3USY5gGFxdVi2Tv5DXCHLWuCqUiuSHmkc0yoqdjdMN5q+MUUtsK143D6p00uhHYTvin3CuJ887Yum6IP4G/VWQMGo+oXsnTqFoRlZdWjwRGR+isiIxqkdE5WOscJgenogOq6Pmn+ItSbxvKm33Kh7PwFf9O38sVwN2bifwpjtZFwi9ogl8zqoit8RNBhuztQd4jkCNCo+jn591WZPt0//qKY4M9yVmyfUbtB/pt/crLcoo2ssmDJWFLHH1gETwFmvwKq8UGbZkHNvFrD8I+vmvNeJ54ebtXXT/J1tLCWy2M4nagt8QDgeIXJ1uJ4Yb07RuwZXfHDKWngtuHbQosB1nNcn+OdVZueoy1W5lrRsm7pHz/JTy4Zefn8mWeaXuM07YK/FpoJ8FUsrHKNONF0cWKvpM8pJ9jTKZ+4HuunixP3/wBiiUkHaWjUrXGeKPDZW1J9FVjeC07ks2xkDl55H6J8eTZktdS4JJKUafsfNsef3RIaTAJyz0k7le+z02ke6CbKVmINJLS2JzkGOqe6Oh5YWlVpaknPj7clZFgcWuRmnsGM3HSZAj0dMfnuWqAknKKt1/n6DotaTdkl7yDu2SOes6cxxVqszvNkdxpX+SytnUmOkNa8agvk+YiFNrZmnGc1bdP7FrbYw5o2aYDRyAETunUpXiT5ZnnpFJ7p8iOJ1y57STuXK16poqcVFUh+xOSxJcFbLSiikUtlhS0WiH0meXZJoRQArUwjPnPbITduB02WhXYzBqPqBUqkRGZOQGnXPpK0IysucOpBrdN5PmSrUytlg1pyITIVjbG7zrH90Bkj5d29dN+7kxg9z9VD2/girSr8sDhJ+L+FMjrz9jR207YA03qRXBTOtpcYbAcJEzI/qjIx5rcTI9tDN30Y36rLP6jdoV/K/VitsE0TRJlsyiY09k5RuQkyyrv0pP36iPdVPKeJjiZ9JDwGgZDIR7QvDeIZVcr7s7mONUQe8nKSuTkzzlHZbotSrknQYCeSr0+OMsiT6BOTSGaRIW3DKUfpKpUxljjxW/HPK1SZTJIPDtM1u2536XZXcewjaJ3kDqro6aXc5JfkRzXsEaGjmtMFhg+7Ee5iuKVj3T4/C6I5A6c1M2e1wNjjyfLO07Zjn7zn7roe56HQP0IybaRBjeJJ57vJFnW8x0GtmRBknMgcB1HyCdC5JPgsbWmNqN0TETkQPrK143wVPi1ZfYgG920aQREcYjd1CuTMOJ1NshZNmNT8uGvLROPlk0iytm55nr+SDKZPgUxi9bTNPa3g+hXE8UyKEo39zDmlTGsOxdhA1C5S1kF2ZJZC4pYtT5ofx2MqlkLW2xBhbrC14tVjcWyl5FY1SrtPwkLRDJGXTBuTGG5hWoh827XH/q3nWA2QOgj39FZjMOf6iVlSIiT1y1WhMzNFzZs8OU8fmc1bFiND1IfP7KNi0HYR8tVApcnyrtnne1XcNkecDL1UR7fwjjTRX5/qDwp0bXMZfNOjrS9jSWDpf5Zox6Kcv0l5aO0yQZiyIx3aZwN2+dwaPRZp/UbtK6xIlaMgSPuNyKY05WWBa45j3T2iu0fVadkwblgo8s5Gev2w5w4E+68R4tGskl9zr4OYpgGvXGtovpBqb0VNorlFDdGsREHRbMGqyRqn10USghug8nLcutpMk8klFvgpmklYdzyN63ZcmTFwpFSin7EA4rMsknyNSJtJV+OUn2K0iFx8J6K9vhgiuT5r2vaRVeP/ACPjlvjz0XZO5on/AC1+DIUh4zHBx+bXZJzq0tpy0Mgieo/P1VkSyaT4osLd7tqZykAepP0WuHQkl8/BoL9pOznkTn8lcc7EuWRZGQ4bp14BMkO1wWdo7L6ZeZSyRmyRpmb7Z/HSH7rv5lwPGH64/hnO1L9QLDjkF5rJ2YpFvTfoflkcpy/PNVX7FLLq2d4CtmHnEymXY1Sq6ceSeE65AW1vcugcN0rpQzyUV8BTMF2jJddPz/Dn/tC6OB3G2ZcvLC24JLeX1yyWtGdl/bHw81bEVj9sNN068EwqG6YEO4mPQoMePufHu1L5va4/fH8jVD3HhirTQ/z3J4c8CQnTOi3ZosOrNAyAmN+9EqyRbL2xrtLgS3dEbp4pZOjFli0uzO4z2SrVKzqrHgBxmFzpZG5FK1Uo8I5Z9mK7ci6QmjkZHrJlk3s++Pid8wrPMQn8Zk+D6mFScozWNNio5eN8bVZWdbSv0IrlwGaw1MpRZDFNNB8lUhy0Oa7Ph8tuRX7mbIuBuqF1tXG6KYsiwLPiivcLYSVqT9XAnsRuvhPRW5HUWgw7R857Zs/XVOG2ZPCYIK7B2NC/5aMewAvJ35g/8XSmXR04tbbXaAWmkDz37/rKtiXt1wixtc84/aHstcOiS/sX9wSQzqDn0z81d7HNxt2wdu2J3dPmT80xbLj2LSxMw7KTpwg5n6FKzJlXBnu2jf1lMfun+ZcDxj6o/qc3P2Aw05BeaydmJl1SWdUVst7f4Ct2PjEyiXYeiEYUKWVq86Lbjm1wFGIxn/8ATU6j2C7GlXoRlydjNoHEcOB1W1FDL21bkM1ZHoDQ9SZnKYFDu0AJ+ZQHij4xjtvXfc1qjaTi1zzB5CAD6KvzFZ6zSauOPDGD9kRtbesMjRf8kyyI1LX4y+w+2rH/AEyOqPmIEtfD2NThlm5uZGaqyTsx5dQ8hcU53rM0ikO0IAbJ7KItl7tpLKKKHG/jPQLyvjcf5t/Y6WlfoKxebZsDUkrFkMMTQVuyt9DdDULr6T60Z59Dzyu5ndKzNEG1YoO3yOwgWmNxfIr5IXXwlPm+gOP6j5/22b+tfzzPm1v35rtro6uifoRj2/H8xyORj0ITnUXQvZCQddCP7K1dF8luQ5aA7+XtC1Q6F528l/c6MPMeyuRixq5MhSM65aZ8OacM+eEW1u3pl5zG4JWZZyM72xM1KZ/dPuvP+MfXD8M52o4aF8NOS81lMTLqkswjLegfCV0Yf6TM8uw1FDHyKywoFbI8ERhcXugLmpIOozg8Au3pk/LRnn2OWl43itaKWi3t7tvFWIUbpXbdNqfvgE1gpnbqu4iGiAq5v2Nmnx82wVKmd4WdqjoqVjjLUcEtssGKduOClsbgct7ackaFlKgeylGQWjRc7QIdglJLsZFid7gm2Mq8+I6qiFLjQ8Q6LzfjS9af2N+l+kqgvMM2hqKrYJDLE0OypjVBdTSv1L9CifQ7UK7uqfBmiRaskF7jsIFpXIjRG4+Eps300SHZge2x/WHo3+ULtw6R1tD9JjmnxAc1adZdC1md/T56CVbEuyV2N2/lqPrrmtURXdl9dfCw/ehVyMWN+qRHZ+/JMM2WFo8wPl/fod6DM00VHadg22TwPuvN+N3vh+H/AGOXqnyhWzIC87L7mJlrRqBVUVMsqNcbMLTGfo2lUlzYek8cU0EIx2ncbgt2CEpuiIXqYVRc4uLPEcyea7cU4qkWuMX7B/8ALGObsmS3eCclb5kvcTyYnqPZ2gNKYU3/AGD5USxt8PY34WgdAEd7IscUMm1EaINtjxSQDuwqzQg9KkFAh6VMJkKx22ZE7uqYrkwbbdgz+I89PkosfyLLM+kTc/8AsrFFIocmyEpgBpWA3UVGN6jouD4yujZpemVTRxXlnFLlm2w1LhCnD4FYZirjHkVsaoldLTRakiiT4HapXd1XsZoEWlZYpsdhGla4WqaK2RrHIqZfcMOzAdtRFQ8w0j/iAuzjfpR1NE1Rji7xA8x76q866a2gLIZwromiT4oboCBv138itECtOy8q05axvDXf5K9GGFJy+5Om4cN8ZiNBM80UC27tllbU/EIhBszzk6ZT9prSq8g027WyIy3yZG9cfxHTrK4/azm6p8op6FtX/BHIkj3Eeq5MvDJPpowOa9xim6qCB3ZJOUAtP1VD8Mye1CtjtK4qDLu3z0n2TR8LylcmixtG13f6ZaOLiB6arZi8Ma+plb56Lu1tHAZ5nj+S6WPHjxKohjGQ5StzvTNlyixunShLY1DFOkmQA7KaIBmlSEElEhXBm0SAM+SpfZosbpWpHxGOWpTxiyuWRIO3ZGg8zmrFBFMsjZ5z1ZRW3ZAuRAcJUIRL1CBlzzoFZjA081xPGFcY/qatN7lUNIXlu1RsC0xvKV/LIwzFVCXqsrYxSXR08/cqkh6qNF3dVK9pmicaqoSoLCALUuehGRqDIpJPhjIzva7DDUpCo3VrfF/DGvkuxjfpRfp8u2TT9z5vcU+P395rTE7OLIxei2OfGVfFGqL9NMOCNFoiNfBY292cg711+9FYjHsS59x+m/nkY8kyEaGBcSQG6ct6DaStmebjFWy+tacNAIz1PVczK90rORkyb5WGbatO5V8orpMm2yHBTcwbUFZZjgpuYNqDNtxwUslIM2koQ93agSQYmTBQxR0TIRhGMJ0HmiAMAIg5pqYrkR2o0AHRMoJCOTZElPQtkYRAeKhCKhCDnoqIHIhtFNtF3DUrlWdMr8X0HmuR4r9Mf1NOn7ZTQvJT7NyDUlQSQdiMOyt9DNJdLTq3RTIaByC6W6Uoxv4KaJMKfFNp9WBoICNy1bop2lSEpkqzIHkrc2JR4XuhYOxa6eW0wBrAHoulFNQSCuZHzfGuzdQuLqWU/s/s+WWXRWQlJG2OplHoonYRcgwWHrBI9JWiOR/BbHxCu4/uGZg9f9zzNQf/AAro5fsN/wAzj7xY0zBbjWGeRcfZuSsWX7CPxKPsmM2+A3JOey0cTn6DX0TecUT8Qk/pRocNwLYzJLnfid9BuVM8tmKcpzfqZcUbWMlmciUNMppSBAxAgVtJGhWyTaaKQGw1KlmmSFbAVG5lI+x0FZbHfl11+SZRbElJIO1rRoJ5n8laoFbmec9WJUVtkCUQHEQHpUIRJUIQc9MkBsFUeYKZIRyAW2/emYqHBbO4KvzIlmxk5XIOmKYiyW9Fg8Qx78X4L8LqRSkLx2WLTN8WEYs4WMMKMXTK2hikVvwSW5WUyXA45w3LtZZ4pJbWZ0n7nmlLFhZMOVykhaOl0rbgg8s+SuT2oUu35rq7RExfZlSh7PdyoQ93A4BGwEhRHBHcQmKSlkJimoQ89kJZEOtCBCcIAGKZyVifArXJ2kM8hKiYGHa2DJPkE6i2VOSPBwGgj3TqCQrm2QJTiM4SiA4oA4oQ4USEHPRSsDYNz06QrkRRFPGmSCYyQ3JEoPbVGAZKuUZNlkXFIkbtTyyeYyRC5bR0rA1Aq5Lih0UF83ZPJee1mht3E2Y8nyLNuBxXEyYHFlyYdlwqHBkCi4Q9SA0Hp3PNa9PlldFUooKbxo1IC6sG2VNA24kHGGeI8tPMro6fS5J+xROaQ9avO/X7yXbw4441SM0m5ckbmkSVa2NHoiylCVsYmGIBOhqhCewiQ6GJqASaxEhCsM0kuyIg0IBGKduTy5lFRbEckg7aTRz9lasXyVSy/B0vVqikVOTZGUwpxQh5QhxQhyVAAq9cNElMotgckgFO4LuQT7UhN1kkQHWtJyAlBtLsKV9DLLcDN2ZVbm30OoJdg7mvkQEYw5BKXAnajVWsrQxCUI4VyzqEHtSuIyZW3lmHaqiWNMsUqKetgAOYJb0KqeljLug+YL/5FUGlX3/NVvw3C+4r9yedL5PDBK3/AHh8j+aX/lWD/t/qTz5B6eBPPxVnHoCPqroeHaePsI802M0Oz1MZu2n/AMTifTRaYYMUOkI5SfuW1C0DcgAOQyCtsXahgU4UIcrp2RAoQCdDVAnQ1EASExDqJDwUAT/Rp1Me6mxsV5EgjWtboPMqyONIqlkbPOerKKrIEogOSoQ5KhD0qEPSoQg6oAmSFbBueSmUaFbsVvh4PMJ49iS6OWijAh+lak5uyHBVSyfBaofIZ9QNEBIouXY+5LoXc8lWpUVt2DraIrsD6A24RYqQ0LcpN6LNjGdlc46BwtUolgzSQ2BsiaSm0lnu5QoJ7ulKIdFNTaQmGKUAkKaZIFnQxMoi7iFYKNDIFsoBPKEPFEhNtMnQJ0BtImKIGufRMoMreQIHxpkrFFFLm2RLk1C2RlEBxQBwqEOOUCe3KEIPeAmSYt0CLyeiZRoVyOAIgPFQgOq3ahsxn5eyPXIO+B6jSYwZfNUNykXJKKI1bidE8YCuYBWFZ1Ahw55Kdch7HLe3a0Z5lUSm5F0YqJ03Q4qeWw+YgwCz0aLOwpQLIkKBTBkJWMchAJ4BQBINUITaEyQrZ0hEhwogBVQlY8QUJRibKBPJMo2K5JBAxo5lWrGVSyM86oVYooqcmyBKYU4oQ5KgD0qEPKEOIkIvfCiVkboC55KdRQjkzgCYB1AhwlQAZltvd8gkc/gdQ+RXEz8MZZp8YszlBxIzRaAmFChDyBA9C3Ls9AklNIeMLJXgDWwAhC2+RppJcClCoSMyrGlZUpMIoGz/2Q==;" vertex="1" parent="7">
                    <mxGeometry x="510" y="112" width="204.81" height="136.29" as="geometry"/>
                </mxCell>
                <mxCell id="59" value="" style="endArrow=none;html=1;" edge="1" parent="7">
                    <mxGeometry width="50" height="50" relative="1" as="geometry">
                        <mxPoint y="80" as="sourcePoint"/>
                        <mxPoint x="755" y="80" as="targetPoint"/>
                    </mxGeometry>
                </mxCell>
                <mxCell id="8" value="&lt;font style=&quot;font-size: 18px;&quot;&gt;Smoothie Bar, Build Your Blend!&lt;/font&gt;" style="text;html=1;align=center;verticalAlign=middle;resizable=0;points=[];autosize=1;strokeColor=none;fillColor=none;" vertex="1" parent="1">
                    <mxGeometry x="260" y="93" width="280" height="40" as="geometry"/>
                </mxCell>
            </root>
        </mxGraphModel>
    </diagram>
</mxfile>